<svg height="512" viewBox="0 0 64 64" width="512" xmlns="http://www.w3.org/2000/svg"><g id="distance-people-virus-protection-covid19"><path d="m61 22v11.5a2.5 2.5 0 0 1 -5 0v24.5a3 3 0 0 1 -6 0 3 3 0 0 1 -6 0v-24.5a2.5 2.5 0 0 1 -5 0v-11.5a6 6 0 0 1 6-6h1a2.006 2.006 0 0 0 2-2v-1.54a4 4 0 0 1 -2-3.46v-2a4 4 0 0 1 3.81-4 4.166 4.166 0 0 1 4.19 4.23v1.77a4 4 0 0 1 -1.97 3.45l-.03.01v1.54a2.006 2.006 0 0 0 2 2h1a6 6 0 0 1 6 6z" fill="#ed1c24"/><path d="m25 22v11.5a2.5 2.5 0 0 1 -5 0v24.5a3 3 0 0 1 -6 0 3 3 0 0 1 -6 0v-24.5a2.5 2.5 0 0 1 -5 0v-11.5a6 6 0 0 1 6-6h1a2.006 2.006 0 0 0 2-2v-1.54a4 4 0 0 1 -2-3.46v-2a4 4 0 0 1 3.81-4 4.166 4.166 0 0 1 4.19 4.23v1.77a4 4 0 0 1 -1.97 3.45l-.03.01v1.54a2.006 2.006 0 0 0 2 2h1a6 6 0 0 1 6 6z" fill="#2488ff"/><path d="m8 33.5v-11.5a2 2 0 0 0 -2 2v11.95a2.5 2.5 0 0 0 2-2.45z" fill="#006df0"/><path d="m20 22v11.5a2.5 2.5 0 0 0 2 2.45v-11.95a2 2 0 0 0 -2-2z" fill="#006df0"/><path d="m14 38a1 1 0 0 0 -1 1v21.224a2.982 2.982 0 0 0 1-2.224 2.982 2.982 0 0 0 1 2.224v-21.224a1 1 0 0 0 -1-1z" fill="#006df0"/><g fill="#d80027"><path d="m44 33.5v-11.5a2 2 0 0 0 -2 2v11.95a2.5 2.5 0 0 0 2-2.45z"/><path d="m56 22v11.5a2.5 2.5 0 0 0 2 2.45v-11.95a2 2 0 0 0 -2-2z"/><path d="m50 38a1 1 0 0 0 -1 1v21.224a2.982 2.982 0 0 0 1-2.224 2.982 2.982 0 0 0 1 2.224v-21.224a1 1 0 0 0 -1-1z"/><path d="m52 14v-1.54l.03-.01a4 4 0 0 0 1.97-3.45v-1.77a4.166 4.166 0 0 0 -4.19-4.23c-.108 0-.208.032-.314.045a4.219 4.219 0 0 1 3.504 4.185v1.77a4 4 0 0 1 -1.97 3.45l-.03.01v1.54a2.006 2.006 0 0 0 2 2h1a2.006 2.006 0 0 1 -2-2z"/></g><path d="m16 14v-1.54l.03-.01a4 4 0 0 0 1.97-3.45v-1.77a4.166 4.166 0 0 0 -4.19-4.23c-.108 0-.208.032-.314.045a4.219 4.219 0 0 1 3.504 4.185v1.77a4 4 0 0 1 -1.97 3.45l-.03.01v1.54a2.006 2.006 0 0 0 2 2h1a2.006 2.006 0 0 1 -2-2z" fill="#006df0"/><path d="m24.293 12.707a1 1 0 0 0 1.414-1.414l-1.293-1.293h15.172l-1.293 1.293a1 1 0 1 0 1.414 1.414l3-3a1 1 0 0 0 0-1.414l-3-3a1 1 0 0 0 -1.414 1.414l1.293 1.293h-15.172l1.293-1.293a1 1 0 1 0 -1.414-1.414l-3 3a1 1 0 0 0 0 1.414z" fill="#5eac24"/><path d="m38.707 44.293a1 1 0 0 0 -1.414 1.414l1.293 1.293h-13.172l1.293-1.293a1 1 0 0 0 -1.414-1.414l-3 3a1 1 0 0 0 0 1.414l3 3a1 1 0 0 0 1.414-1.414l-1.293-1.293h13.172l-1.293 1.293a1 1 0 1 0 1.414 1.414l3-3a1 1 0 0 0 0-1.414z" fill="#5eac24"/></g></svg>