<svg height="488pt" viewBox="-9 0 487 488" width="488pt" xmlns="http://www.w3.org/2000/svg"><path d="m442.148438 484h-231.296876c-13.449218 0-24.351562-10.902344-24.351562-24.351562v-431.296876c0-13.449218 10.902344-24.351562 24.351562-24.351562h231.296876c13.449218 0 24.351562 10.902344 24.351562 24.351562v431.296876c0 13.449218-10.902344 24.351562-24.351562 24.351562zm0 0" fill="#4671c6"/><path d="m286.5 68c0 15.464844-12.535156 28-28 28s-28-12.535156-28-28 12.535156-28 28-28 28 12.535156 28 28zm0 0" fill="#e0ebfc"/><path d="m422.5 68c0 15.464844-12.535156 28-28 28s-28-12.535156-28-28 12.535156-28 28-28 28 12.535156 28 28zm0 0" fill="#a4c9ff"/><path d="m286.5 156c0 15.464844-12.535156 28-28 28s-28-12.535156-28-28 12.535156-28 28-28 28 12.535156 28 28zm0 0" fill="#e0ebfc"/><path d="m422.5 156c0 15.464844-12.535156 28-28 28s-28-12.535156-28-28 12.535156-28 28-28 28 12.535156 28 28zm0 0" fill="#a4c9ff"/><path d="m286.5 244c0 15.464844-12.535156 28-28 28s-28-12.535156-28-28 12.535156-28 28-28 28 12.535156 28 28zm0 0" fill="#e0ebfc"/><path d="m422.5 244c0 15.464844-12.535156 28-28 28s-28-12.535156-28-28 12.535156-28 28-28 28 12.535156 28 28zm0 0" fill="#a4c9ff"/><path d="m286.5 332c0 15.464844-12.535156 28-28 28s-28-12.535156-28-28 12.535156-28 28-28 28 12.535156 28 28zm0 0" fill="#e0ebfc"/><path d="m422.5 332c0 15.464844-12.535156 28-28 28s-28-12.535156-28-28 12.535156-28 28-28 28 12.535156 28 28zm0 0" fill="#a4c9ff"/><path d="m286.5 420c0 15.464844-12.535156 28-28 28s-28-12.535156-28-28 12.535156-28 28-28 28 12.535156 28 28zm0 0" fill="#e0ebfc"/><path d="m422.5 420c0 15.464844-12.535156 28-28 28s-28-12.535156-28-28 12.535156-28 28-28 28 12.535156 28 28zm0 0" fill="#a4c9ff"/><path d="m326.5 53c-3.867188 0-7-3.132812-7-7v-12c0-3.867188 3.132812-7 7-7s7 3.132812 7 7v12c0 3.867188-3.132812 7-7 7zm0 0" fill="#ffea92"/><path d="m326.5 413.753906c-3.867188 0-7-3.132812-7-7v-24.878906c0-3.867188 3.132812-7 7-7s7 3.132812 7 7v24.878906c0 3.867188-3.132812 7-7 7zm0-60.125c-3.867188 0-7-3.136718-7-7v-24.882812c0-3.863282 3.132812-7 7-7s7 3.136718 7 7v24.882812c0 3.863282-3.132812 7-7 7zm0-60.125c-3.867188 0-7-3.136718-7-7v-24.882812c0-3.863282 3.132812-7 7-7s7 3.136718 7 7v24.882812c0 3.863282-3.132812 7-7 7zm0-60.128906c-3.867188 0-7-3.132812-7-7v-24.878906c0-3.867188 3.132812-7 7-7s7 3.132812 7 7v24.878906c0 3.867188-3.132812 7-7 7zm0-60.121094c-3.867188 0-7-3.136718-7-7v-24.882812c0-3.863282 3.132812-7 7-7s7 3.136718 7 7v24.882812c0 3.863282-3.132812 7-7 7zm0-60.128906c-3.867188 0-7-3.132812-7-7v-24.878906c0-3.867188 3.132812-7 7-7s7 3.132812 7 7v24.878906c0 3.867188-3.132812 7-7 7zm0 0" fill="#ffea92"/><path d="m326.5 461c-3.867188 0-7-3.132812-7-7v-12c0-3.867188 3.132812-7 7-7s7 3.132812 7 7v12c0 3.867188-3.132812 7-7 7zm0 0" fill="#ffea92"/><path d="m442.148438 488h-231.296876c-15.632812 0-28.351562-12.71875-28.351562-28.351562v-431.296876c0-15.632812 12.71875-28.351562 28.351562-28.351562h231.296876c15.632812 0 28.347656 12.71875 28.347656 28.351562v431.296876c.003906 15.632812-12.714844 28.351562-28.347656 28.351562zm-231.296876-480c-11.222656 0-20.351562 9.128906-20.351562 20.351562v431.296876c0 11.222656 9.128906 20.347656 20.351562 20.347656h231.296876c11.222656 0 20.347656-9.125 20.347656-20.347656v-431.296876c0-11.222656-9.125-20.351562-20.347656-20.351562zm0 0" fill="#3762cc"/><path d="m126.5 386.863281v-238.710937c0-9.535156-6.859375-17.269532-15.324219-17.269532h-73.351562c-8.464844 0-15.324219 7.730469-15.324219 17.269532v238.710937zm0 0" fill="#e0ebfc"/><path d="m42.5 386.863281v-228.769531c0-5.097656 3.582031-9.230469 8-9.230469h48c4.417969 0 8 4.132813 8 9.230469v228.769531zm0 0" fill="#f9cfcf"/><path d="m121.425781 484h-93.851562c-4.835938 0-8.753907-3.921875-8.753907-8.757812v-10.601563c0-4.835937 3.917969-8.757813 8.753907-8.757813h93.851562c4.835938 0 8.757813 3.921876 8.757813 8.757813v10.601563c0 4.835937-3.921875 8.757812-8.757813 8.757812zm0 0" fill="#4671c6"/><path d="m50.636719 408.285156h47.726562v47.597656h-47.726562zm0 0" fill="#a4c9ff"/><path d="m138.660156 408.285156h-128.320312c-3.226563 0-5.839844-2.613281-5.839844-5.839844v-9.746093c0-3.222657 2.613281-5.835938 5.839844-5.835938h128.320312c3.226563 0 5.839844 2.613281 5.839844 5.835938v9.746093c0 3.226563-2.613281 5.839844-5.839844 5.839844zm0 0" fill="#6bdddd"/><path d="m60.628906 227.5h-32.601562c-2.5 0-4.527344-2.238281-4.527344-5s2.027344-5 4.527344-5h32.601562c2.5 0 4.527344 2.238281 4.527344 5s-2.027344 5-4.527344 5zm0 0" fill="#f9a7a7"/><path d="m71.722656 271.5h-43.46875c-2.5 0-4.527344-2.238281-4.527344-5s2.027344-5 4.527344-5h43.46875c2.5 0 4.527344 2.238281 4.527344 5s-2.027344 5-4.527344 5zm0 0" fill="#f9a7a7"/><path d="m60.628906 315.5h-32.601562c-2.5 0-4.527344-2.238281-4.527344-5s2.027344-5 4.527344-5h32.601562c2.5 0 4.527344 2.238281 4.527344 5s-2.027344 5-4.527344 5zm0 0" fill="#f9a7a7"/><path d="m60.628906 359.5h-32.601562c-2.5 0-4.527344-2.238281-4.527344-5s2.027344-5 4.527344-5h32.601562c2.5 0 4.527344 2.238281 4.527344 5s-2.027344 5-4.527344 5zm0 0" fill="#f9a7a7"/><path d="m60.628906 183.5h-32.601562c-2.5 0-4.527344-2.238281-4.527344-5s2.027344-5 4.527344-5h32.601562c2.5 0 4.527344 2.238281 4.527344 5s-2.027344 5-4.527344 5zm0 0" fill="#f9a7a7"/><path d="m104.5 130.882812v-14.105468c0-7.058594-5.074219-12.777344-11.339844-12.777344h-37.320312c-6.265625 0-11.339844 5.722656-11.339844 12.777344v14.105468zm0 0" fill="#a4c9ff"/><g fill="#3762cc"><path d="m121.425781 488h-93.851562c-7.03125 0-12.753907-5.722656-12.753907-12.757812v-10.601563c0-7.035156 5.722657-12.757813 12.753907-12.757813h93.851562c7.035157 0 12.757813 5.722657 12.757813 12.757813v10.601563c0 7.035156-5.726563 12.757812-12.757813 12.757812zm-93.851562-28.117188c-2.621094 0-4.753907 2.132813-4.753907 4.753907v10.605469c0 2.625 2.132813 4.753906 4.753907 4.753906h93.851562c2.625 0 4.757813-2.132813 4.757813-4.753906v-10.605469c0-2.621094-2.136719-4.753907-4.757813-4.753907zm0 0"/><path d="m98.363281 459.882812h-47.726562c-2.207031 0-4-1.792968-4-4v-47.597656c0-2.210937 1.792969-4 4-4h47.726562c2.207031 0 4 1.789063 4 4v47.597656c0 2.210938-1.792969 4-4 4zm-43.726562-8h39.726562v-39.597656h-39.726562zm0 0"/><path d="m138.660156 412.285156h-128.320312c-5.425782 0-9.839844-4.414062-9.839844-9.839844v-9.746093c0-5.421875 4.414062-9.835938 9.839844-9.835938h128.320312c5.425782 0 9.839844 4.414063 9.839844 9.835938v9.746093c0 5.425782-4.414062 9.839844-9.839844 9.839844zm-128.320312-21.421875c-1.015625 0-1.839844.824219-1.839844 1.835938v9.746093c0 1.015626.824219 1.839844 1.839844 1.839844h128.320312c1.015625 0 1.839844-.824218 1.839844-1.839844v-9.746093c0-1.011719-.824219-1.835938-1.839844-1.835938zm0 0"/><path d="m104.5 134.882812h-60c-2.207031 0-4-1.792968-4-4v-14.105468c0-9.25 6.878906-16.777344 15.339844-16.777344h37.320312c8.460938 0 15.339844 7.527344 15.339844 16.777344v14.105468c0 2.207032-1.792969 4-4 4zm-56-8h52v-10.105468c0-4.839844-3.292969-8.777344-7.339844-8.777344h-37.320312c-4.046875 0-7.339844 3.9375-7.339844 8.777344zm0 0"/><path d="m126.5 390.863281h-104c-2.207031 0-4-1.792969-4-4v-238.710937c0-11.726563 8.667969-21.269532 19.324219-21.269532h73.351562c10.65625 0 19.324219 9.542969 19.324219 21.269532v238.710937c0 2.207031-1.792969 4-4 4zm-100-8h96v-234.710937c0-7.316406-5.078125-13.269532-11.324219-13.269532h-73.351562c-6.246094 0-11.324219 5.953126-11.324219 13.269532zm0 0"/></g><path d="m82.453125 104v-100l-15.90625 8.125v91.875zm0 0" fill="#e0ebfc"/><path d="m82.457031 108h-15.910156c-2.207031 0-4-1.792969-4-4v-91.875c0-1.503906.839844-2.878906 2.179687-3.5625l15.910157-8.125c1.242187-.632812 2.71875-.574219 3.90625.152344 1.1875.726562 1.914062 2.019531 1.914062 3.410156v100c0 2.207031-1.792969 4-4 4zm-11.914062-8h7.910156v-89.464844l-7.910156 4.039063zm0 0" fill="#3762cc"/><path d="m110.5 244h240v240h-240zm0 0" fill="#6bdddd"/><path d="m320.5 364c0 49.707031-40.292969 90-90 90s-90-40.292969-90-90 40.292969-90 90-90 90 40.292969 90 90zm0 0" fill="#f9a7a7"/><path d="m83.5 460.089844c0 9.476562-10.050781 11.441406-14.222656 17.804687-1.714844 2.621094.277344 6.101563 3.410156 6.101563h37.8125v-239.996094h-38.355469c-1.574219 2.453125-2.066406 3.222656-3.640625 5.675781 3.503906 7.507813 14.996094 9.050781 14.996094 19.175781 0 11.949219-16 11.949219-16 23.898438 0 .011719.003906.019531.003906.03125s-.003906.019531-.003906.03125c0 11.9375 15.96875 11.949219 15.996094 23.867188-.027344 11.914062-15.996094 11.925781-15.996094 23.859374 0 .011719.003906.019532.003906.03125 0 .011719-.003906.023438-.003906.035157 0 11.9375 15.964844 11.949219 15.996094 23.863281-.03125 11.917969-15.996094 11.929688-15.996094 23.871094 0 .011718.003906.019531.003906.027344 0 .007812-.003906.015624-.003906.023437 0 11.941406 15.972656 11.953125 15.996094 23.871094-.023438 11.929687-15.996094 11.941406-15.996094 23.886719 0 .007812.003906.015624.003906.023437s-.003906.015625-.003906.023437c0 11.945313 16 11.945313 16 23.894532zm0 0" fill="#e0ebfc"/><path d="m377.5 267.910156c0-9.476562 10.050781-11.441406 14.222656-17.804687 1.714844-2.621094-.277344-6.101563-3.410156-6.101563h-37.8125v239.996094h38.355469c1.574219-2.453125 2.066406-3.222656 3.640625-5.675781-3.503906-7.507813-14.996094-9.050781-14.996094-19.175781 0-11.949219 16-11.949219 16-23.898438 0-.011719-.003906-.019531-.003906-.03125s.003906-.019531.003906-.03125c0-11.9375-15.96875-11.949219-15.996094-23.867188.027344-11.914062 15.996094-11.925781 15.996094-23.859374 0-.011719-.003906-.019532-.003906-.03125 0-.015626.003906-.023438.003906-.035157 0-11.9375-15.964844-11.953125-15.996094-23.863281.03125-11.917969 15.996094-11.929688 15.996094-23.871094 0-.011718-.003906-.019531-.003906-.027344 0-.007812.003906-.015624.003906-.023437 0-11.941406-15.972656-11.953125-15.996094-23.871094.023438-11.929687 15.996094-11.941406 15.996094-23.886719 0-.007812-.003906-.015624-.003906-.023437s.003906-.015625.003906-.023437c0-11.945313-16-11.945313-16-23.894532zm0 0" fill="#e0ebfc"/><path d="m350.5 488h-240c-2.207031 0-4-1.792969-4-4v-240c0-2.207031 1.792969-4 4-4h240c2.207031 0 4 1.792969 4 4v240c0 2.207031-1.792969 4-4 4zm-236-8h232v-232h-232zm0 0" fill="#3762cc"/><path d="m110.5 488h-37.8125c-2.957031 0-5.664062-1.621094-7.078125-4.234375-1.382813-2.558594-1.257813-5.648437.324219-8.0625 1.921875-2.9375 4.710937-5.023437 7.171875-6.859375 4.082031-3.054688 6.390625-4.964844 6.390625-8.753906 0-3.785156-2.308594-5.695313-6.390625-8.742188-4.28125-3.199218-9.609375-7.175781-9.609375-15.15625 0-.003906 0-.011718 0-.019531 0-.011719 0-.015625 0-.023437 0-7.984376 5.328125-11.960938 9.605468-15.164063 4.082032-3.046875 6.386719-4.957031 6.394532-8.730469-.007813-3.757812-2.316406-5.664062-6.394532-8.710937-4.28125-3.195313-9.605468-7.171875-9.605468-15.152344 0-.007813 0-.019531 0-.027344 0-.007812 0-.015625 0-.023437 0-7.980469 5.328125-11.960938 9.605468-15.160156 4.078126-3.046876 6.382813-4.953126 6.394532-8.722657-.011719-3.75-2.316406-5.65625-6.390625-8.699219-4.28125-3.199218-9.605469-7.179687-9.605469-15.15625 0-.007812 0-.023437 0-.035156 0-.007812 0-.019531 0-.03125 0-7.976562 5.324219-11.957031 9.605469-15.152344 4.078125-3.042968 6.382812-4.949218 6.390625-8.71875-.007813-3.75-2.3125-5.65625-6.390625-8.703124-4.28125-3.195313-9.601563-7.171876-9.601563-15.152344 0-.007813 0-.019532 0-.03125 0-.011719 0-.019532 0-.03125 0-7.980469 5.324219-11.957032 9.605469-15.152344 4.082031-3.050781 6.394531-4.960938 6.394531-8.746094s-2.3125-5.691406-6.394531-8.742187c-2.984375-2.226563-6.367187-4.753907-8.230469-8.746094-.578125-1.242187-.480468-2.699219.257813-3.851563l3.644531-5.671874c.738281-1.148438 2.003906-1.839844 3.367188-1.839844h38.351562c2.207031 0 4 1.792968 4 4v240c0 2.210937-1.792969 4.003906-4 4.003906zm-39-51.71875c.035156 3.726562 2.34375 5.628906 6.394531 8.65625 4.28125 3.195312 9.605469 7.171875 9.605469 15.152344 0 7.980468-5.324219 11.960937-9.605469 15.160156-2.117187 1.585938-4.117187 3.078125-5.269531 4.835938l33.878906-.078126v-232.007812h-32.171875l-1.089843 1.695312c1.1875 1.417969 2.886718 2.6875 4.652343 4.007813 4.28125 3.195313 9.605469 7.171875 9.605469 15.152344s-5.328125 11.957031-9.605469 15.152343c-4.046875 3.023438-6.351562 4.925782-6.390625 8.640626v.132812.132812c.039063 3.71875 2.34375 5.621094 6.390625 8.640626 4.269531 3.191406 9.585938 7.164062 9.601563 15.117187-.015625 7.964844-5.332032 11.9375-9.605469 15.125-4.042969 3.023437-6.347656 4.925781-6.386719 8.640625v.132812.136719c.039063 3.71875 2.34375 5.621094 6.390625 8.644531 4.269531 3.1875 9.582031 7.160157 9.601563 15.105469-.019532 7.972657-5.332032 11.941407-9.601563 15.132813-4.050781 3.027344-6.359375 4.933594-6.390625 8.667968v.109376.109374c.03125 3.730469 2.339844 5.632813 6.390625 8.660157 4.269531 3.191406 9.585938 7.164062 9.605469 15.121093-.015625 7.972657-5.335938 11.949219-9.605469 15.140626-4.050781 3.03125-6.355469 4.933593-6.390625 8.664062v.109375c0 .035156-.003906.070313-.003906.109375zm0 0" fill="#3762cc"/><path d="m388.855469 488h-38.355469c-2.207031 0-4-1.792969-4-4v-240c0-2.207031 1.792969-4 4-4h37.8125c2.957031 0 5.664062 1.621094 7.078125 4.234375 1.382813 2.558594 1.257813 5.648437-.324219 8.0625-1.921875 2.9375-4.710937 5.023437-7.171875 6.859375-4.082031 3.054688-6.390625 4.964844-6.390625 8.753906 0 3.785156 2.308594 5.695313 6.390625 8.742188 4.28125 3.199218 9.609375 7.175781 9.609375 15.15625v.019531.023437c0 7.984376-5.328125 11.960938-9.605468 15.164063-4.082032 3.046875-6.386719 4.957031-6.394532 8.730469.007813 3.757812 2.316406 5.664062 6.394532 8.710937 4.28125 3.195313 9.605468 7.171875 9.605468 15.152344v.050781c0 7.980469-5.328125 11.960938-9.605468 15.160156-4.078126 3.046876-6.382813 4.953126-6.394532 8.722657.011719 3.75 2.316406 5.65625 6.390625 8.699219 4.28125 3.199218 9.605469 7.179687 9.605469 15.15625v.066406c0 7.976562-5.324219 11.957031-9.605469 15.152344-4.078125 3.042968-6.382812 4.949218-6.390625 8.71875.007813 3.75 2.3125 5.65625 6.390625 8.703124 4.28125 3.195313 9.601563 7.171876 9.601563 15.152344v.03125.03125c0 7.980469-5.324219 11.957032-9.605469 15.152344-4.082031 3.050781-6.394531 4.960938-6.394531 8.746094s2.3125 5.691406 6.394531 8.742187c2.984375 2.226563 6.367187 4.753907 8.230469 8.746094.578125 1.242187.480468 2.699219-.257813 3.851563l-3.644531 5.671874c-.734375 1.144532-2.003906 1.835938-3.363281 1.835938zm-34.355469-8h32.167969l1.089843-1.695312c-1.1875-1.417969-2.886718-2.6875-4.652343-4.007813-4.28125-3.195313-9.605469-7.171875-9.605469-15.152344s5.328125-11.957031 9.605469-15.152343c4.046875-3.023438 6.351562-4.925782 6.390625-8.640626 0-.046874 0-.089843 0-.132812s0-.089844 0-.132812c-.039063-3.71875-2.34375-5.621094-6.390625-8.640626-4.269531-3.191406-9.585938-7.164062-9.601563-15.117187.015625-7.964844 5.332032-11.9375 9.605469-15.125 4.042969-3.023437 6.347656-4.925781 6.386719-8.640625 0-.042969 0-.089844 0-.132812 0-.046876 0-.089844 0-.136719-.039063-3.71875-2.34375-5.621094-6.390625-8.644531-4.269531-3.1875-9.582031-7.160157-9.601563-15.105469.019532-7.972657 5.332032-11.941407 9.601563-15.132813 4.050781-3.027344 6.359375-4.933594 6.390625-8.667968 0-.035157 0-.070313 0-.109376 0-.035156 0-.070312 0-.109374-.03125-3.730469-2.339844-5.632813-6.390625-8.660157-4.269531-3.191406-9.585938-7.164062-9.605469-15.121093.015625-7.972657 5.335938-11.949219 9.605469-15.140626 4.050781-3.03125 6.355469-4.933593 6.390625-8.664062 0-.039062 0-.074219 0-.109375s0-.070313 0-.109375c-.035156-3.726562-2.339844-5.628906-6.390625-8.65625-4.28125-3.195312-9.609375-7.171875-9.609375-15.152344 0-7.980468 5.328125-11.960937 9.605468-15.160156 2.117188-1.585938 4.117188-3.078125 5.269532-4.835938l-33.875.078126v232.007812zm39-188.183594h.019531zm0 0" fill="#3762cc"/><path d="m230.5 434c-38.597656 0-70-31.402344-70-70s31.402344-70 70-70 70 31.402344 70 70-31.402344 70-70 70zm0-132c-34.1875 0-62 27.8125-62 62s27.8125 62 62 62 62-27.8125 62-62-27.8125-62-62-62zm0 0" fill="#3762cc"/><path d="m230.5 458c-51.832031 0-94-42.167969-94-94s42.167969-94 94-94 94 42.167969 94 94-42.167969 94-94 94zm0-180c-47.421875 0-86 38.578125-86 86s38.578125 86 86 86 86-38.578125 86-86-38.578125-86-86-86zm0 0" fill="#3762cc"/></svg>