<svg id="Capa_1" enable-background="new 0 0 512 512" height="512" viewBox="0 0 512 512" width="512" xmlns="http://www.w3.org/2000/svg"><g><g><path d="m420.125 150.529c.06 0 .119 0 .179-.001 3.262-.044 6.475-.199 9.55-.461 28.63-2.425 51.584-21.093 59.902-48.72 8.349-27.727-.52-56.073-23.144-73.975-4.109-3.252-8.47-6.133-12.963-8.563-11.902-6.442-25.571-9.111-39.538-7.708-29.309 2.937-58.406 11.696-86.484 26.034-6.334 3.235-8.846 10.992-5.612 17.326 3.235 6.333 10.99 8.849 17.325 5.611 25.211-12.874 51.231-20.729 77.337-23.345 8.815-.878 17.361.755 24.714 4.732 3.186 1.724 6.295 3.781 9.239 6.111 16.923 13.39 18.568 32.723 14.464 46.352-4.079 13.55-16.052 28.674-37.417 30.484-2.473.209-5.071.334-7.726.37-7.112.098-12.798 5.941-12.701 13.052.099 7.052 5.845 12.701 12.875 12.701z" fill="#da4a54"/></g><path d="m360.833 22.953c-11.191 3.876-22.276 8.6-33.205 14.182-6.334 3.235-8.846 10.992-5.612 17.326 3.235 6.333 10.99 8.849 17.325 5.611 9.902-5.057 19.931-9.327 30.039-12.822-1.735-8.503-4.627-16.668-8.547-24.297z" fill="#d82e3d"/><g><path d="m91.875 150.529c-.06 0-.119 0-.179-.001-3.262-.044-6.475-.199-9.55-.461-28.63-2.425-51.584-21.093-59.902-48.72-8.349-27.727.52-56.073 23.144-73.975 4.109-3.252 8.47-6.133 12.963-8.563 11.902-6.442 25.571-9.111 39.538-7.708 29.309 2.937 58.406 11.696 86.484 26.034 6.334 3.235 8.846 10.992 5.612 17.326-3.235 6.333-10.99 8.849-17.325 5.611-25.211-12.874-51.231-20.729-77.337-23.345-8.815-.878-17.361.755-24.714 4.732-3.186 1.724-6.295 3.781-9.239 6.111-16.924 13.39-18.569 32.723-14.466 46.352 4.079 13.55 16.052 28.674 37.417 30.484 2.473.209 5.071.334 7.726.37 7.112.098 12.798 5.941 12.701 13.052-.097 7.052-5.843 12.701-12.873 12.701z" fill="#da4a54"/></g><path d="m142.62 47.25c10.108 3.495 20.136 7.765 30.039 12.822 6.335 3.238 14.09.722 17.325-5.611 3.234-6.334.722-14.091-5.612-17.326-10.929-5.581-22.014-10.305-33.205-14.181-3.92 7.628-6.812 15.793-8.547 24.296z" fill="#d82e3d"/><g fill="#dd636e"><circle cx="108.111" cy="138.081" r="26.81"/><path d="m154.42 92.528c.27 5.328.872 10.667 1.811 16.018 4.552 25.952 17.067 49.848 35.169 68.993l1.093 1.156c15.559 16.456 14.656 42.458-2.008 57.795-15.352 14.129-17.503 37.59-4.976 54.275l12.483 16.627c10.579 14.092 10.867 33.397.712 47.797l-10.211 14.479c-5.763 8.172-8.309 18.182-7.151 28.114l11.925 102.28c.793 6.805 6.558 11.936 13.409 11.936h98.649c6.851 0 12.615-5.132 13.409-11.936l11.925-102.28c1.158-9.932-1.388-19.942-7.151-28.114l-10.211-14.479c-10.155-14.4-9.868-33.706.712-47.797l12.483-16.627c12.526-16.685 10.375-40.146-4.976-54.275-16.664-15.337-17.567-41.339-2.008-57.795l1.093-1.156c18.102-19.145 30.617-43.041 35.169-68.993.939-5.351 1.541-10.691 1.811-16.018 1.767-34.839-18.623-66.943-50.486-81.142-34.063-15.18-68.126-15.18-102.19 0-31.863 14.199-52.253 46.303-50.485 81.142z"/><path d="m154.42 92.528c.27 5.328.872 10.667 1.811 16.018 4.552 25.952 17.067 49.848 35.169 68.993l1.093 1.156c15.559 16.456 14.656 42.458-2.008 57.795-15.352 14.129-17.503 37.59-4.976 54.275l12.483 16.627c10.579 14.092 10.867 33.397.712 47.797l-10.211 14.479c-5.763 8.172-8.309 18.182-7.151 28.114l11.925 102.28c.793 6.805 6.558 11.936 13.409 11.936h98.649c6.851 0 12.615-5.132 13.409-11.936l11.925-102.28c1.158-9.932-1.388-19.942-7.151-28.114l-10.211-14.479c-10.155-14.4-9.868-33.706.712-47.797l12.483-16.627c12.526-16.685 10.375-40.146-4.976-54.275-16.664-15.337-17.567-41.339-2.008-57.795l1.093-1.156c18.102-19.145 30.617-43.041 35.169-68.993.939-5.351 1.541-10.691 1.811-16.018 1.767-34.839-18.623-66.943-50.486-81.142-34.063-15.18-68.126-15.18-102.19 0-31.863 14.199-52.253 46.303-50.485 81.142z"/></g><path d="m307.095 11.385c-20.264-9.031-40.527-12.687-60.791-10.974 13.8 1.167 27.599 4.824 41.399 10.974 31.863 14.2 52.253 46.303 50.486 81.142-.27 5.328-.872 10.667-1.811 16.018-4.552 25.952-17.067 49.848-35.169 68.993l-1.093 1.156c-15.559 16.456-14.656 42.458 2.008 57.795 15.352 14.129 17.503 37.59 4.976 54.275l-12.483 16.627c-10.579 14.092-10.867 33.397-.712 47.797l10.211 14.479c5.763 8.172 8.309 18.182 7.151 28.114l-11.925 102.28c-.793 6.805-6.558 11.936-13.409 11.936h19.392c6.851 0 12.615-5.132 13.409-11.936l11.925-102.28c1.158-9.932-1.388-19.942-7.151-28.114l-10.211-14.479c-10.155-14.4-9.868-33.705.712-47.797l12.483-16.627c12.526-16.685 10.375-40.146-4.976-54.275-16.664-15.337-17.567-41.339-2.008-57.795l1.093-1.156c18.102-19.145 30.617-43.041 35.169-68.993.939-5.351 1.541-10.691 1.811-16.018 1.767-34.838-18.623-66.942-50.486-81.142z" fill="#da4a54"/><path d="m283.323 51.917c-18.212-8.163-36.424-8.165-54.635-.005-16.849 7.549-27.639 24.675-26.694 43.114.145 2.82.464 5.646.961 8.479 2.22 12.658 7.95 22.75 12.591 29.229 5.054 7.056 9.22 14.701 12.314 22.809l.006.015c4.078 10.686 6.285 21.995 6.526 33.431l4.398 209.355c.197 9.364 7.844 16.853 17.211 16.853 9.367 0 17.014-7.489 17.211-16.853l4.398-209.355c.24-11.436 2.448-22.744 6.526-33.431 3.098-8.117 7.271-15.769 12.331-22.832 4.638-6.474 10.359-16.557 12.58-29.221.497-2.831.816-5.656.961-8.475.944-18.435-9.84-35.562-26.685-43.113z" fill="#f6f6f6"/><path d="m283.323 51.917c-12.216-5.476-24.433-7.261-36.649-5.392 6 .918 11.999 2.702 17.999 5.392 16.845 7.55 27.629 24.677 26.682 43.112-.145 2.819-.464 5.644-.961 8.475-2.221 12.664-7.942 22.747-12.58 29.221-5.059 7.063-9.233 14.715-12.331 22.832-4.078 10.686-6.285 21.995-6.526 33.431l-4.398 209.356c-.125 5.93-3.242 11.1-7.886 14.1 2.69 1.738 5.889 2.753 9.325 2.753 9.367 0 17.014-7.489 17.211-16.853l4.398-209.356c.24-11.435 2.448-22.744 6.526-33.431 3.098-8.117 7.271-15.769 12.331-22.832 4.638-6.474 10.359-16.557 12.58-29.221.497-2.831.816-5.656.961-8.475.947-18.434-9.837-35.561-26.682-43.112z" fill="#dddaec"/><circle cx="403.889" cy="138.081" fill="#dd636e" r="26.81"/><g><path d="m256 465.837c-7.508 0-15.016-2.167-22.315-6.501-3.669-2.179-4.877-6.92-2.699-10.589s6.919-4.876 10.588-2.699c9.842 5.844 19.009 5.846 28.851 0 3.668-2.177 8.408-.97 10.589 2.699 2.178 3.669.97 8.409-2.699 10.589-7.299 4.334-14.807 6.501-22.315 6.501z" fill="#d82e3d"/></g><circle cx="370.41" cy="424.44" fill="#b3e59f" r="75.998"/><path d="m370.41 348.442c-4.392 0-8.689.393-12.877 1.108 35.836 6.12 63.121 37.309 63.121 74.89s-27.285 68.77-63.121 74.89c4.188.715 8.485 1.108 12.877 1.108 41.973 0 75.998-34.025 75.998-75.998s-34.025-75.998-75.998-75.998z" fill="#95d6a4"/><path d="m410.661 407.404h-18.783c-2.448 0-4.433-1.985-4.433-4.433v-18.783c0-2.448-1.985-4.433-4.433-4.433h-25.205c-2.448 0-4.433 1.985-4.433 4.433v18.783c0 2.448-1.985 4.433-4.433 4.433h-18.783c-2.448 0-4.433 1.985-4.433 4.433v25.205c0 2.448 1.985 4.433 4.433 4.433h18.783c2.448 0 4.433 1.985 4.433 4.433v18.783c0 2.448 1.985 4.433 4.433 4.433h25.205c2.448 0 4.433-1.985 4.433-4.433v-18.783c0-2.448 1.985-4.433 4.433-4.433h18.783c2.448 0 4.433-1.985 4.433-4.433v-25.205c0-2.448-1.984-4.433-4.433-4.433z" fill="#f6f6f6"/></g></svg>